<svg width="224" height="62" viewBox="0 0 224 62" fill="none" xmlns="http://www.w3.org/2000/svg">
<path d="M21.4688 40.625V0H30.5312V48H22.375L21.4688 40.625ZM0.09375 31.5V30.8438C0.09375 28.2604 0.385417 25.9167 0.96875 23.8125C1.55208 21.6875 2.40625 19.8646 3.53125 18.3438C4.65625 16.8229 6.04167 15.6458 7.6875 14.8125C9.33333 13.9792 11.2083 13.5625 13.3125 13.5625C15.2917 13.5625 17.0208 13.9792 18.5 14.8125C20 15.6458 21.2708 16.8333 22.3125 18.375C23.375 19.8958 24.2292 21.6979 24.875 23.7812C25.5208 25.8438 25.9896 28.1042 26.2812 30.5625V32C25.9896 34.3542 25.5208 36.5417 24.875 38.5625C24.2292 40.5833 23.375 42.3542 22.3125 43.875C21.2708 45.375 20 46.5417 18.5 47.375C17 48.2083 15.25 48.625 13.25 48.625C11.1458 48.625 9.27083 48.1979 7.625 47.3438C6 46.4896 4.625 45.2917 3.5 43.75C2.39583 42.2083 1.55208 40.3958 0.96875 38.3125C0.385417 36.2292 0.09375 33.9583 0.09375 31.5ZM9.09375 30.8438V31.5C9.09375 32.8958 9.19792 34.1979 9.40625 35.4062C9.63542 36.6146 10 37.6875 10.5 38.625C11.0208 39.5417 11.6875 40.2604 12.5 40.7812C13.3333 41.2812 14.3438 41.5312 15.5312 41.5312C17.0729 41.5312 18.3438 41.1875 19.3438 40.5C20.3438 39.7917 21.1042 38.8229 21.625 37.5938C22.1667 36.3646 22.4792 34.9479 22.5625 33.3438V29.25C22.5 27.9375 22.3125 26.7604 22 25.7188C21.7083 24.6562 21.2708 23.75 20.6875 23C20.125 22.25 19.4167 21.6667 18.5625 21.25C17.7292 20.8333 16.7396 20.625 15.5938 20.625C14.4271 20.625 13.4271 20.8958 12.5938 21.4375C11.7604 21.9583 11.0833 22.6771 10.5625 23.5938C10.0625 24.5104 9.6875 25.5938 9.4375 26.8438C9.20833 28.0729 9.09375 29.4062 9.09375 30.8438ZM55.8125 40.375V25.3125C55.8125 24.2292 55.6354 23.3021 55.2812 22.5312C54.9271 21.7396 54.375 21.125 53.625 20.6875C52.8958 20.25 51.9479 20.0312 50.7812 20.0312C49.7812 20.0312 48.9167 20.2083 48.1875 20.5625C47.4583 20.8958 46.8958 21.3854 46.5 22.0312C46.1042 22.6562 45.9062 23.3958 45.9062 24.25H36.9062C36.9062 22.8125 37.2396 21.4479 37.9062 20.1562C38.5729 18.8646 39.5417 17.7292 40.8125 16.75C42.0833 15.75 43.5938 14.9688 45.3438 14.4062C47.1146 13.8438 49.0938 13.5625 51.2812 13.5625C53.9062 13.5625 56.2396 14 58.2812 14.875C60.3229 15.75 61.9271 17.0625 63.0938 18.8125C64.2812 20.5625 64.875 22.75 64.875 25.375V39.8438C64.875 41.6979 64.9896 43.2188 65.2188 44.4062C65.4479 45.5729 65.7812 46.5938 66.2188 47.4688V48H57.125C56.6875 47.0833 56.3542 45.9375 56.125 44.5625C55.9167 43.1667 55.8125 41.7708 55.8125 40.375ZM57 27.4062L57.0625 32.5H52.0312C50.8438 32.5 49.8125 32.6354 48.9375 32.9062C48.0625 33.1771 47.3438 33.5625 46.7812 34.0625C46.2188 34.5417 45.8021 35.1042 45.5312 35.75C45.2812 36.3958 45.1562 37.1042 45.1562 37.875C45.1562 38.6458 45.3333 39.3438 45.6875 39.9688C46.0417 40.5729 46.5521 41.0521 47.2188 41.4062C47.8854 41.7396 48.6667 41.9062 49.5625 41.9062C50.9167 41.9062 52.0938 41.6354 53.0938 41.0938C54.0938 40.5521 54.8646 39.8854 55.4062 39.0938C55.9688 38.3021 56.2604 37.5521 56.2812 36.8438L58.6562 40.6562C58.3229 41.5104 57.8646 42.3958 57.2812 43.3125C56.7188 44.2292 56 45.0938 55.125 45.9062C54.25 46.6979 53.1979 47.3542 51.9688 47.875C50.7396 48.375 49.2812 48.625 47.5938 48.625C45.4479 48.625 43.5 48.1979 41.75 47.3438C40.0208 46.4688 38.6458 45.2708 37.625 43.75C36.625 42.2083 36.125 40.4583 36.125 38.5C36.125 36.7292 36.4583 35.1562 37.125 33.7812C37.7917 32.4062 38.7708 31.25 40.0625 30.3125C41.375 29.3542 43.0104 28.6354 44.9688 28.1562C46.9271 27.6562 49.1979 27.4062 51.7812 27.4062H57ZM90.0938 38.6562C90.0938 38.0104 89.9062 37.4271 89.5312 36.9062C89.1562 36.3854 88.4583 35.9062 87.4375 35.4688C86.4375 35.0104 84.9896 34.5938 83.0938 34.2188C81.3854 33.8438 79.7917 33.375 78.3125 32.8125C76.8542 32.2292 75.5833 31.5312 74.5 30.7188C73.4375 29.9062 72.6042 28.9479 72 27.8438C71.3958 26.7188 71.0938 25.4375 71.0938 24C71.0938 22.5833 71.3958 21.25 72 20C72.625 18.75 73.5104 17.6458 74.6562 16.6875C75.8229 15.7083 77.2396 14.9479 78.9062 14.4062C80.5938 13.8438 82.4896 13.5625 84.5938 13.5625C87.5312 13.5625 90.0521 14.0312 92.1562 14.9688C94.2812 15.9062 95.9062 17.1979 97.0312 18.8438C98.1771 20.4688 98.75 22.3229 98.75 24.4062H89.75C89.75 23.5312 89.5625 22.75 89.1875 22.0625C88.8333 21.3542 88.2708 20.8021 87.5 20.4062C86.75 19.9896 85.7708 19.7812 84.5625 19.7812C83.5625 19.7812 82.6979 19.9583 81.9688 20.3125C81.2396 20.6458 80.6771 21.1042 80.2812 21.6875C79.9062 22.25 79.7188 22.875 79.7188 23.5625C79.7188 24.0833 79.8229 24.5521 80.0312 24.9688C80.2604 25.3646 80.625 25.7292 81.125 26.0625C81.625 26.3958 82.2708 26.7083 83.0625 27C83.875 27.2708 84.875 27.5208 86.0625 27.75C88.5 28.25 90.6771 28.9062 92.5938 29.7188C94.5104 30.5104 96.0312 31.5938 97.1562 32.9688C98.2812 34.3229 98.8438 36.1042 98.8438 38.3125C98.8438 39.8125 98.5104 41.1875 97.8438 42.4375C97.1771 43.6875 96.2188 44.7812 94.9688 45.7188C93.7188 46.6354 92.2188 47.3542 90.4688 47.875C88.7396 48.375 86.7917 48.625 84.625 48.625C81.4792 48.625 78.8125 48.0625 76.625 46.9375C74.4583 45.8125 72.8125 44.3854 71.6875 42.6562C70.5833 40.9062 70.0312 39.1146 70.0312 37.2812H78.5625C78.6042 38.5104 78.9167 39.5 79.5 40.25C80.1042 41 80.8646 41.5417 81.7812 41.875C82.7188 42.2083 83.7292 42.375 84.8125 42.375C85.9792 42.375 86.9479 42.2188 87.7188 41.9062C88.4896 41.5729 89.0729 41.1354 89.4688 40.5938C89.8854 40.0312 90.0938 39.3854 90.0938 38.6562ZM113.469 0V48H104.469V0H113.469ZM112.188 29.9062H109.719C109.74 27.5521 110.052 25.3854 110.656 23.4062C111.26 21.4062 112.125 19.6771 113.25 18.2188C114.375 16.7396 115.719 15.5938 117.281 14.7812C118.865 13.9688 120.615 13.5625 122.531 13.5625C124.198 13.5625 125.708 13.8021 127.062 14.2812C128.438 14.7396 129.615 15.4896 130.594 16.5312C131.594 17.5521 132.365 18.8958 132.906 20.5625C133.448 22.2292 133.719 24.25 133.719 26.625V48H124.656V26.5625C124.656 25.0625 124.438 23.8854 124 23.0312C123.583 22.1562 122.969 21.5417 122.156 21.1875C121.365 20.8125 120.385 20.625 119.219 20.625C117.927 20.625 116.823 20.8646 115.906 21.3438C115.01 21.8229 114.292 22.4896 113.75 23.3438C113.208 24.1771 112.812 25.1562 112.562 26.2812C112.312 27.4062 112.188 28.6146 112.188 29.9062ZM161.969 14.1875H170.125V46.875C170.125 49.9583 169.438 52.5729 168.062 54.7188C166.708 56.8854 164.812 58.5208 162.375 59.625C159.938 60.75 157.104 61.3125 153.875 61.3125C152.458 61.3125 150.958 61.125 149.375 60.75C147.812 60.375 146.312 59.7917 144.875 59C143.458 58.2083 142.271 57.2083 141.312 56L145.281 50.6875C146.323 51.8958 147.531 52.8333 148.906 53.5C150.281 54.1875 151.802 54.5312 153.469 54.5312C155.094 54.5312 156.469 54.2292 157.594 53.625C158.719 53.0417 159.583 52.1771 160.188 51.0312C160.792 49.9062 161.094 48.5417 161.094 46.9375V22L161.969 14.1875ZM139.219 31.5V30.8438C139.219 28.2604 139.531 25.9167 140.156 23.8125C140.802 21.6875 141.708 19.8646 142.875 18.3438C144.062 16.8229 145.5 15.6458 147.188 14.8125C148.875 13.9792 150.781 13.5625 152.906 13.5625C155.156 13.5625 157.042 13.9792 158.562 14.8125C160.083 15.6458 161.333 16.8333 162.312 18.375C163.292 19.8958 164.052 21.6979 164.594 23.7812C165.156 25.8438 165.594 28.1042 165.906 30.5625V32C165.594 34.3542 165.125 36.5417 164.5 38.5625C163.875 40.5833 163.052 42.3542 162.031 43.875C161.01 45.375 159.74 46.5417 158.219 47.375C156.719 48.2083 154.927 48.625 152.844 48.625C150.76 48.625 148.875 48.1979 147.188 47.3438C145.521 46.4896 144.094 45.2917 142.906 43.75C141.719 42.2083 140.802 40.3958 140.156 38.3125C139.531 36.2292 139.219 33.9583 139.219 31.5ZM148.219 30.8438V31.5C148.219 32.8958 148.354 34.1979 148.625 35.4062C148.896 36.6146 149.312 37.6875 149.875 38.625C150.458 39.5417 151.177 40.2604 152.031 40.7812C152.906 41.2812 153.938 41.5312 155.125 41.5312C156.771 41.5312 158.115 41.1875 159.156 40.5C160.198 39.7917 160.979 38.8229 161.5 37.5938C162.021 36.3646 162.323 34.9479 162.406 33.3438V29.25C162.365 27.9375 162.188 26.7604 161.875 25.7188C161.562 24.6562 161.125 23.75 160.562 23C160 22.25 159.271 21.6667 158.375 21.25C157.479 20.8333 156.417 20.625 155.188 20.625C154 20.625 152.969 20.8958 152.094 21.4375C151.24 21.9583 150.521 22.6771 149.938 23.5938C149.375 24.5104 148.948 25.5938 148.656 26.8438C148.365 28.0729 148.219 29.4062 148.219 30.8438ZM175.688 31.4375V30.7812C175.688 28.3021 176.042 26.0208 176.75 23.9375C177.458 21.8333 178.49 20.0104 179.844 18.4688C181.198 16.9271 182.865 15.7292 184.844 14.875C186.823 14 189.094 13.5625 191.656 13.5625C194.219 13.5625 196.5 14 198.5 14.875C200.5 15.7292 202.177 16.9271 203.531 18.4688C204.906 20.0104 205.948 21.8333 206.656 23.9375C207.365 26.0208 207.719 28.3021 207.719 30.7812V31.4375C207.719 33.8958 207.365 36.1771 206.656 38.2812C205.948 40.3646 204.906 42.1875 203.531 43.75C202.177 45.2917 200.51 46.4896 198.531 47.3438C196.552 48.1979 194.281 48.625 191.719 48.625C189.156 48.625 186.875 48.1979 184.875 47.3438C182.896 46.4896 181.219 45.2917 179.844 43.75C178.49 42.1875 177.458 40.3646 176.75 38.2812C176.042 36.1771 175.688 33.8958 175.688 31.4375ZM184.688 30.7812V31.4375C184.688 32.8542 184.812 34.1771 185.062 35.4062C185.312 36.6354 185.708 37.7188 186.25 38.6562C186.812 39.5729 187.542 40.2917 188.438 40.8125C189.333 41.3333 190.427 41.5938 191.719 41.5938C192.969 41.5938 194.042 41.3333 194.938 40.8125C195.833 40.2917 196.552 39.5729 197.094 38.6562C197.635 37.7188 198.031 36.6354 198.281 35.4062C198.552 34.1771 198.688 32.8542 198.688 31.4375V30.7812C198.688 29.4062 198.552 28.1146 198.281 26.9062C198.031 25.6771 197.625 24.5938 197.062 23.6562C196.521 22.6979 195.802 21.9479 194.906 21.4062C194.01 20.8646 192.927 20.5938 191.656 20.5938C190.385 20.5938 189.302 20.8646 188.406 21.4062C187.531 21.9479 186.812 22.6979 186.25 23.6562C185.708 24.5938 185.312 25.6771 185.062 26.9062C184.812 28.1146 184.688 29.4062 184.688 30.7812Z" fill="#A8A8B3"/>
<path d="M213.688 43.6562C213.688 42.3229 214.146 41.2083 215.062 40.3125C216 39.4167 217.24 38.9688 218.781 38.9688C220.323 38.9688 221.552 39.4167 222.469 40.3125C223.406 41.2083 223.875 42.3229 223.875 43.6562C223.875 44.9896 223.406 46.1042 222.469 47C221.552 47.8958 220.323 48.3438 218.781 48.3438C217.24 48.3438 216 47.8958 215.062 47C214.146 46.1042 213.688 44.9896 213.688 43.6562Z" fill="#D53F8C"/>
</svg>
